<?xml version="1.0" encoding="UTF-8" standalone="no"?>
<svg
   version="1.1"
   width="580"
   height="580"
   id="svg3"
   sodipodi:docname="chairlift.svg"
   inkscape:version="1.4.4 (dcaf3e7, 2026-05-05)"
   xmlns:inkscape="http://www.inkscape.org/namespaces/inkscape"
   xmlns:sodipodi="http://sodipodi.sourceforge.net/DTD/sodipodi-0.dtd"
   xmlns="http://www.w3.org/2000/svg"
   xmlns:svg="http://www.w3.org/2000/svg">
  <defs
     id="defs3" />
  <sodipodi:namedview
     id="namedview3"
     pagecolor="#ffffff"
     bordercolor="#000000"
     borderopacity="0.25"
     inkscape:showpageshadow="2"
     inkscape:pageopacity="0.0"
     inkscape:pagecheckerboard="0"
     inkscape:deskcolor="#d1d1d1"
     inkscape:zoom="0.80930581"
     inkscape:cx="287.28325"
     inkscape:cy="344.7399"
     inkscape:window-width="1440"
     inkscape:window-height="830"
     inkscape:window-x="-6"
     inkscape:window-y="-6"
     inkscape:window-maximized="1"
     inkscape:current-layer="svg3" />
  <path
     d="m 373.80648,29.045788 c 4.12778,3.818201 7.1232,6.980514 7.77344,12.730469 0.20806,5.67366 0.005,10.10723 -3.49924,14.7444 -5.6871,5.890426 -15.44137,8.398109 -22.95389,11.216537 -1.06459,0.404403 -2.12918,0.808806 -3.22603,1.225464 -2.29158,0.869849 -4.58405,1.737344 -6.87733,2.602692 -4.29346,1.620155 -8.58354,3.249113 -12.87346,4.878587 -0.62418,0.237076 -1.24836,0.474152 -1.89145,0.718413 -0.62679,0.238078 -1.25358,0.476156 -1.89936,0.721449 -1.91703,0.727861 -3.83431,1.455037 -5.75167,2.182024 -12.51164,4.744832 -25.00178,9.545032 -37.48851,14.354962 -2.11562,0.81436 -4.23126,1.62865 -6.34692,2.44287 -5.35972,2.06288 -10.71915,4.126485 -16.0785,6.190315 -9.64627,3.71465 -19.29285,7.42849 -28.93997,11.14096 -3.44702,1.32677 -6.89373,2.65435 -10.34042,3.98197 -2.08893,0.80399 -4.17788,1.60795 -6.26685,2.41186 -0.95671,0.36876 -1.91343,0.73753 -2.89914,1.11746 -0.87512,0.3366 -1.75024,0.6732 -2.65188,1.01999 -0.76027,0.29276 -1.52054,0.58551 -2.30385,0.88713 -1.64826,0.61859 -3.3148,1.18823 -4.98497,1.74495 -0.0458,34.35357 -0.081,68.70714 -0.10213,103.06074 -0.002,4.05788 -0.005,8.11576 -0.008,12.17363 -5.3e-4,0.80784 -0.001,1.61567 -0.002,2.44799 -0.009,13.0718 -0.0245,26.14358 -0.0429,39.21538 -0.0187,13.41781 -0.0298,26.83562 -0.0339,40.25344 -0.003,8.2762 -0.0114,16.55234 -0.0277,24.82852 -0.0106,5.67911 -0.0138,11.35819 -0.0112,17.0373 10e-4,3.27411 -0.002,6.54811 -0.0114,9.82221 -0.01,3.55675 -0.008,7.11328 -0.002,10.67004 -0.006,1.02532 -0.0117,2.05063 -0.0177,3.10702 0.0502,12.15596 2.31416,23.61221 10.55894,33.00482 12.57452,11.90962 26.7586,12.66517 43.44141,12.65235 1.38096,0.009 2.76191,0.0186 4.14285,0.0299 5.80163,0.0457 11.60319,0.0709 17.405,0.0775 3.57374,0.005 7.14694,0.0293 10.72049,0.0653 2.004,0.0145 4.00811,0.007 6.01214,-5.4e-4 11.22135,0.12178 11.22135,0.12178 15.97733,4.55435 3.71346,3.91976 5.94593,7.65949 6.03516,13.17187 -0.36207,5.26316 -1.51652,8.7389 -5.03516,12.82813 -5.30529,4.00603 -8.92561,5.12244 -15.49658,5.177 -0.65588,0.007 -1.31176,0.0131 -1.98752,0.0199 -2.17457,0.0197 -4.34908,0.0314 -6.52371,0.0414 -0.74831,0.004 -1.49662,0.008 -2.26761,0.0124 -3.97476,0.0209 -7.94948,0.0352 -11.92429,0.0445 -4.05988,0.011 -8.1192,0.0452 -12.17889,0.0852 -3.15753,0.0265 -6.31493,0.0346 -9.47256,0.0381 -1.49318,0.005 -2.98635,0.0162 -4.47941,0.035 -13.68715,0.16155 -27.81845,-1.50778 -40.04443,-8.14099 -0.65227,-0.34104 -1.30453,-0.68208 -1.97656,-1.03345 -17.43116,-9.45117 -29.30163,-24.87963 -35.85938,-43.38843 -2.21584,-8.11745 -3.07845,-15.74686 -3.02957,-24.15359 -0.002,-1.09069 -0.003,-2.18137 -0.005,-3.30511 -0.003,-3.63118 0.008,-7.26218 0.0186,-10.89335 5.6e-4,-2.61227 2.5e-4,-5.22455 -8.9e-4,-7.83683 -0.001,-5.61201 0.005,-11.22397 0.0165,-16.83596 0.0163,-8.11385 0.0215,-16.22768 0.024,-24.34155 0.004,-13.16629 0.0177,-26.33256 0.0366,-39.49884 0.0184,-12.78483 0.0325,-25.56965 0.041,-38.35449 5.2e-4,-0.78893 0.001,-1.57785 0.002,-2.39069 0.003,-3.95807 0.005,-7.91614 0.008,-11.87422 0.0207,-32.80201 0.0559,-65.604 0.10065,-98.40599 -6.91261,2.63297 -13.82469,5.26732 -20.73615,7.90331 -3.21099,1.2246 -6.42215,2.44878 -9.63372,3.67189 -3.71186,1.41369 -7.42306,2.8291 -11.13404,4.24511 -1.79396,0.68411 -1.79396,0.68411 -3.62416,1.38204 -7.39352,2.827 -14.75165,5.72191 -22.05943,8.76371 -6.466729,2.37731 -12.583589,2.9963 -18.988279,0.19019 -4.24846,-2.69281 -7.243572,-6.41431 -8.824222,-11.15625 -0.53422,-5.96889 -0.53307,-10.93594 3.000002,-16 4.55189,-4.31824 8.94424,-6.51385 14.78125,-8.70312 0.86798,-0.33623 1.73596,-0.67245 2.63025,-1.01886 2.85863,-1.10396 5.72334,-2.19111 8.588499,-3.27802 1.98213,-0.76143 3.9639,-1.52382 5.94531,-2.28711 5.3596,-2.06051 10.72493,-4.10566 16.09214,-6.14627 6.05799,-2.30352 12.1137,-4.61303 18.16958,-6.92209 0.61878,-0.23587 1.23756,-0.47174 1.87509,-0.71476 13.04466,-4.97269 26.07697,-9.977205 39.10538,-14.992275 1.06528,-0.40997 2.13056,-0.81994 3.22812,-1.24234 7.5285,-2.8974 15.05651,-5.79609 22.58438,-8.69516 8.60381,-3.313422 17.20786,-6.626232 25.8125,-9.937497 1.59543,-0.613976 1.59543,-0.613976 3.22308,-1.240356 19.386,-7.458889 38.78939,-14.871846 58.19709,-22.274048 15.82344,-6.036124 31.63606,-12.09976 47.43652,-18.195801 0.75483,-0.29097 1.50966,-0.581941 2.28737,-0.881729 1.38731,-0.534826 2.7744,-1.070214 4.16122,-1.606293 7.73744,-2.982382 15.55853,-4.94878 23.38204,-1.176733 z"
     fill="#000000"
     id="path1" />
  <path
     d="m 284.5096,139.88954 c 7.28829,5.89739 11.67366,13.37064 13.79688,22.46875 1.20888,12.96684 -0.56545,23.00183 -8.1875,33.875 -6.73092,8.07709 -16.88996,12.66656 -27.1875,13.9375 -10.9832,0.69495 -20.94284,-2.74199 -29.73047,-9.41016 -7.63023,-7.12491 -12.37553,-16.07029 -13.10938,-26.4375 -0.37838,-12.94047 3.13231,-21.89595 11.52735,-31.65234 16.15515,-13.90095 35.36,-14.96565 52.89062,-2.78125 z"
     fill="#000000"
     id="path2" />
  <path
     d="m 275.30648,239.35829 c 8.31803,6.23216 12.71596,14.23741 14.64453,24.39453 0.35547,3.60547 0.35547,3.60547 0.17969,7.23438 -0.50052,14.40051 6.96363,24.05036 15.17578,35.37109 5.27521,-0.60432 9.99865,-1.81672 15.02344,-3.50391 1.53111,-0.49847 3.06236,-0.9965 4.59375,-1.49414 2.38009,-0.78037 4.75866,-1.56473 7.13476,-2.35718 2.31598,-0.76967 4.63691,-1.52261 6.95899,-2.27368 0.69717,-0.23747 1.39434,-0.47495 2.11264,-0.71962 6.13364,-1.96472 13.44076,-3.17033 19.42642,-0.15147 4.40983,2.53124 7.02113,5.71971 8.75,10.5 0.85316,5.25486 0.81901,10.15048 -1.6875,14.9375 -3.85742,5.10848 -7.62603,7.46501 -13.70313,9.35937 -1.25514,0.39784 -2.51028,0.79568 -3.80346,1.20557 -1.35181,0.41638 -2.70378,0.83222 -4.05591,1.24756 -1.39196,0.4345 -2.78364,0.8699 -4.17505,1.30615 -2.1218,0.66512 -4.24382,1.32937 -6.36726,1.98923 -4.48672,1.39778 -8.94408,2.86423 -13.39128,4.38431 -1.10247,0.37157 -2.20495,0.74314 -3.34082,1.12597 -2.039,0.68932 -4.07392,1.3909 -6.10352,2.10743 -6.64821,2.21146 -15.74838,4.64875 -22.37207,1.33691 v 18 c 2.33759,-0.0236 2.33759,-0.0236 4.72241,-0.0476 5.80903,-0.0545 11.61804,-0.0888 17.42725,-0.11718 2.50915,-0.0151 5.01828,-0.0355 7.52734,-0.0615 3.61685,-0.0366 7.23334,-0.0534 10.85034,-0.0666 1.66929,-0.0232 1.66929,-0.0232 3.3723,-0.0469 10.50737,-0.002 17.27533,1.72293 25.00173,9.076 3.38099,3.64722 6.06516,7.59989 8.72363,11.79123 0.58578,0.89886 1.17157,1.79771 1.7751,2.7238 1.87875,2.88781 3.73933,5.78682 5.5999,8.68636 1.93292,2.98147 3.87028,5.96002 5.80794,8.93842 1.27691,1.9634 2.5523,3.92779 3.82614,5.89318 5.77866,8.90662 11.73365,17.68142 17.79365,26.39862 0.61811,0.89598 1.23622,1.79196 1.87305,2.71509 0.52763,0.75684 1.05526,1.51368 1.59888,2.29346 1.10034,1.82362 0.77269,1.7144 1.97406,3.7144 2.59723,11.07091 -38.03964,36.80247 -44.87372,29.10922 -0.34333,-0.50762 -0.68666,-1.01524 -1.04039,-1.53824 -3.62037,-5.35347 -7.23848,-10.70847 -10.85536,-16.0643 -1.34449,-1.99029 -2.68953,-3.98021 -4.03516,-5.96973 -1.30698,-1.93252 -2.61279,-3.86585 -3.91739,-5.79998 -1.28297,-1.89835 -2.57102,-3.79328 -3.86419,-5.6847 -2.76467,-4.06619 -5.44249,-8.10179 -7.78019,-12.43035 -0.3696,-0.65971 -0.7392,-1.31942 -1.12001,-1.99912 -0.93037,-1.69327 -1.80738,-3.41558 -2.67857,-5.14004 -4.5598,-3.99554 -9.84741,-3.31603 -15.70874,-3.37354 -1.90043,-0.0423 -1.90043,-0.0423 -3.83925,-0.0855 -3.46973,-0.0692 -6.93872,-0.0972 -10.40906,-0.11375 -2.29713,-0.012 -4.5941,-0.0315 -6.89115,-0.0531 -6.52035,-0.0609 -13.04067,-0.11572 -19.56122,-0.14902 -4.01575,-0.021 -8.03115,-0.0564 -12.0467,-0.10075 -1.51646,-0.0141 -3.03297,-0.0229 -4.54949,-0.0261 -11.19739,-0.0261 -20.44974,-0.49889 -28.97657,-8.49916 -4.58945,-5.24361 -6.84552,-11.361 -6.867,-18.27736 -0.006,-1.10034 -0.0114,-2.20068 -0.0173,-3.33437 -0.001,-1.2078 -0.002,-2.4156 -0.003,-3.66 -0.005,-1.27185 -0.01,-2.5437 -0.0151,-3.85408 -0.0131,-3.49212 -0.0196,-6.98422 -0.024,-10.47636 -0.003,-2.18459 -0.007,-4.36917 -0.0115,-6.55376 -0.0137,-6.84293 -0.0233,-13.68586 -0.0272,-20.5288 -0.005,-7.88357 -0.022,-15.76696 -0.051,-23.65048 -0.0217,-6.10208 -0.0317,-12.20411 -0.033,-18.30623 -10e-4,-3.63998 -0.007,-7.27981 -0.0248,-10.91975 -0.0197,-4.06899 -0.0152,-8.13761 -0.009,-12.20664 -0.009,-1.19363 -0.0184,-2.38726 -0.0279,-3.61706 0.0543,-10.94455 2.20504,-20.10913 9.38424,-28.58773 12.11142,-11.7026 32.90234,-12.96359 47,-4 z"
     fill="#000000"
     id="path3"
     sodipodi:nodetypes="ccccccccccccccccccccccccccccccccccccccccsccccccccccccccccccccccccccc" />
  <path
     d="M 486.49712,413.69538 292.25797,543.06876 c -2.57672,1.71623 -5.94356,1.19012 -7.51876,-1.17487 -1.57518,-2.36496 -0.76306,-5.67444 1.81367,-7.39066 L 480.79203,405.12986 c 5.2303,-3.48365 9.23711,-8.26663 3.22107,-19.58258 -1.33842,-2.51399 -0.19217,-5.76392 2.48721,-7.25477 2.70792,-1.49554 5.98865,-0.67058 7.32444,1.83931 3.69567,6.94981 4.63883,12.78098 3.90188,17.63982 -1.1194,7.38054 -6.11543,12.51749 -11.22951,15.92374 z"
     id="path3-8"
     stroke="#000000"
     style="stroke-width:18;stroke-dasharray:none"
     sodipodi:nodetypes="ssssscccss" />
</svg>
