<?xml version="1.0" encoding="UTF-8" standalone="no"?>
<svg
   width="400"
   viewBox="0 0 400 400"
   role="img"
   version="1.1"
   id="svg10"
   sodipodi:docname="favicon.svg"
   xml:space="preserve"
   inkscape:version="1.4.3 (0d15f75, 2025-12-25)"
   height="400"
   xmlns:inkscape="http://www.inkscape.org/namespaces/inkscape"
   xmlns:sodipodi="http://sodipodi.sourceforge.net/DTD/sodipodi-0.dtd"
   xmlns="http://www.w3.org/2000/svg"
   xmlns:svg="http://www.w3.org/2000/svg"
   xmlns:rdf="http://www.w3.org/1999/02/22-rdf-syntax-ns#"
   xmlns:cc="http://creativecommons.org/ns#"
   xmlns:dc="http://purl.org/dc/elements/1.1/"><defs
     id="defs10" /><sodipodi:namedview
     id="namedview10"
     pagecolor="#ffffff"
     bordercolor="#666666"
     borderopacity="1.0"
     inkscape:showpageshadow="2"
     inkscape:pageopacity="0.0"
     inkscape:pagecheckerboard="0"
     inkscape:deskcolor="#d1d1d1"
     inkscape:zoom="1.1367647"
     inkscape:cx="60.698577"
     inkscape:cy="151.74644"
     inkscape:window-width="1920"
     inkscape:window-height="991"
     inkscape:window-x="-9"
     inkscape:window-y="-9"
     inkscape:window-maximized="1"
     inkscape:current-layer="svg10" /><title
     id="title1">Trip Logger app icon</title><desc
     id="desc1">Rounded square app icon with a T-shaped multi-modal route</desc><!-- T bar: left half cyan, right half violet --><line
     x1="30"
     y1="136.06059"
     x2="200"
     y2="136.06059"
     stroke="#60EFFF"
     stroke-width="26"
     stroke-linecap="round"
     id="line1"
     style="fill:#08813b;fill-opacity:1;stroke:#08813b;stroke-opacity:1" /><line
     x1="200"
     y1="136.06059"
     x2="370"
     y2="136.06059"
     stroke="#A78BFA"
     stroke-width="26"
     stroke-linecap="round"
     id="line2"
     style="stroke:#e74c3c;stroke-opacity:1" /><!-- T stem green --><line
     x1="200"
     y1="136.06059"
     x2="200"
     y2="366.06058"
     stroke="#34D399"
     stroke-width="26"
     stroke-linecap="round"
     id="line3"
     style="stroke:#3498db;stroke-opacity:1" /><!-- Node: left (cyan) --><circle
     cx="30"
     cy="136.06059"
     r="24"
     fill="#12122a"
     stroke="#60EFFF"
     stroke-width="11"
     id="circle3"
     style="display:inline;stroke:#08813b;stroke-opacity:1" /><circle
     cx="30"
     cy="136.06059"
     r="11"
     fill="#60EFFF"
     id="circle4"
     style="display:inline;fill:#08813b;fill-opacity:1" /><!-- Node: center (junction) --><circle
     cx="200"
     cy="136.06059"
     r="24"
     fill="#12122a"
     stroke="#a78bfa"
     stroke-width="11"
     id="circle5"
     style="display:inline;stroke:#e74c3c;stroke-opacity:1" /><circle
     cx="200"
     cy="136.06059"
     r="11"
     fill="#A78BFA"
     id="circle6"
     style="fill:#e74c3c;fill-opacity:1" /><!-- Node: right (violet) --><circle
     cx="370"
     cy="136.06059"
     r="24"
     fill="#12122a"
     stroke="#A78BFA"
     stroke-width="11"
     id="circle7"
     style="stroke:#e74c3c;stroke-opacity:1" /><circle
     cx="370"
     cy="136.06059"
     r="11"
     fill="#A78BFA"
     id="circle8"
     style="fill:#e74c3c;fill-opacity:1" /><!-- Node: bottom terminal (green) --><circle
     cx="200"
     cy="366.06058"
     r="28"
     fill="#12122a"
     stroke="#34D399"
     stroke-width="11"
     id="circle9"
     style="stroke:#3498db;stroke-opacity:1" /><circle
     cx="200"
     cy="366.06058"
     r="14"
     fill="#34D399"
     id="circle10"
     style="fill:#3498db;fill-opacity:1" /><g
     style="fill:#08813b;fill-opacity:1"
     id="g10"
     transform="matrix(0.1207417,0,0,0.1207417,58.236308,114.35965)"><path
       d="m 436,-360 -65,288 q -3,14 -14.5,23 -11.5,9 -26.5,9 -20,0 -32,-15 -12,-15 -8,-34 l 113,-573 q 6,-29 27,-43.5 21,-14.5 44,-14.5 23,0 42.5,10 19.5,10 31.5,30 l 40,64 q 18,29 46.5,52.5 28.5,23.5 65.5,34.5 v -41 q 0,-13 8.5,-21.5 8.5,-8.5 21.5,-8.5 13,0 21.5,8.5 8.5,8.5 8.5,21.5 v 500 q 0,13 -8.5,21.5 Q 743,-40 730,-40 717,-40 708.5,-48.5 700,-57 700,-70 v -376 q -48,-11 -89,-35 -41,-24 -71,-59 l -24,120 72,68 q 6,6 9,13.5 3,7.5 3,15.5 v 243 q 0,17 -11.5,28.5 Q 577,-40 560,-40 543,-40 531.5,-51.5 520,-63 520,-80 v -200 z m -178,-82 -46,-9 q -16,-3 -25,-16.5 -9,-13.5 -6,-30.5 l 30,-157 q 6,-34 36,-51.5 30,-17.5 65,-10.5 17,3 25.5,16.5 8.5,13.5 5.5,30.5 l -38,196 q -3,17 -16.5,26 -13.5,9 -30.5,6 z M 483.5,-763.5 Q 460,-787 460,-820 q 0,-33 23.5,-56.5 23.5,-23.5 56.5,-23.5 33,0 56.5,23.5 23.5,23.5 23.5,56.5 0,33 -23.5,56.5 -23.5,23.5 -56.5,23.5 -33,0 -56.5,-23.5 z"
       id="path1"
       style="fill:#08813b;fill-opacity:1" /></g><g
     style="fill:#3498db;fill-opacity:1"
     id="g11"
     transform="matrix(0.13888889,0,0,0.13888889,52.968513,312.1717)"><path
       d="m 240,-200 v 20 q 0,25 -17.5,42.5 Q 205,-120 180,-120 155,-120 137.5,-137.5 120,-155 120,-180 v -286 q 0,-7 1,-14 1,-7 3,-13 l 75,-213 q 8,-24 29,-39 21,-15 47,-15 h 410 q 26,0 47,15 21,15 29,39 l 75,213 q 2,6 3,13 1,7 1,14 v 286 q 0,25 -17.5,42.5 Q 805,-120 780,-120 755,-120 737.5,-137.5 720,-155 720,-180 v -20 z m -8,-360 H 728 L 686,-680 H 274 Z m -32,80 v 200 z m 100,160 q 25,0 42.5,-17.5 Q 360,-355 360,-380 360,-405 342.5,-422.5 325,-440 300,-440 q -25,0 -42.5,17.5 -17.5,17.5 -17.5,42.5 0,25 17.5,42.5 17.5,17.5 42.5,17.5 z m 360,0 q 25,0 42.5,-17.5 Q 720,-355 720,-380 720,-405 702.5,-422.5 685,-440 660,-440 q -25,0 -42.5,17.5 -17.5,17.5 -17.5,42.5 0,25 17.5,42.5 17.5,17.5 42.5,17.5 z m -460,40 H 760 V -480 H 200 Z"
       id="path1-0"
       style="fill:#3498db;fill-opacity:1" /></g><g
     style="fill:#e74c3c;fill-opacity:1"
     id="g12"
     transform="matrix(0.10416667,0,0,0.10416667,235,126.19665)"><path
       d="M 200,-160 Q 115,-160 57.5,-217.5 0,-275 0,-360 0,-445 58.5,-502.5 117,-560 200,-560 q 77,0 129.5,46 52.5,46 66.5,114 h 26 l -72,-200 h -30 q -17,0 -28.5,-11.5 Q 280,-623 280,-640 q 0,-17 11.5,-28.5 Q 303,-680 320,-680 h 120 q 17,0 28.5,11.5 11.5,11.5 11.5,28.5 0,17 -11.5,28.5 Q 457,-600 440,-600 h -4 l 14,40 h 192 l -58,-160 h -64 q -17,0 -28.5,-11.5 Q 480,-743 480,-760 q 0,-17 11.5,-28.5 Q 503,-800 520,-800 h 64 q 26,0 46.5,14 20.5,14 29.5,38 l 68,186 h 32 q 83,0 141.5,58.5 58.5,58.5 58.5,141.5 0,84 -58,143 -58,59 -142,59 -72,0 -126.5,-45 Q 579,-250 564,-320 H 396 q -14,69 -68,114.5 -54,45.5 -128,45.5 z m 0,-80 q 41,0 70.5,-22.5 Q 300,-285 312,-320 h -72 q -17,0 -28.5,-11.5 Q 200,-343 200,-360 q 0,-17 11.5,-28.5 Q 223,-400 240,-400 h 72 q -12,-36 -41.5,-58 -29.5,-22 -70.5,-22 -51,0 -85.5,34.5 Q 80,-411 80,-360 q 0,50 34.5,85 34.5,35 85.5,35 z m 308,-160 h 56 q 5,-23 13.5,-43 8.5,-20 22.5,-37 H 478 Z m 252,160 q 51,0 85.5,-35 34.5,-35 34.5,-85 0,-51 -34.5,-85.5 Q 811,-480 760,-480 h -4 l 26,69 q 6,16 -1,30.5 -7,14.5 -23,20.5 -16,6 -31,-1 -15,-7 -21,-23 l -24,-68 q -20,17 -31,40 -11,23 -11,52 0,50 34.5,85 34.5,35 85.5,35 z M 196,-360 Z m 564,0 z"
       id="path1-9"
       style="fill:#e74c3c;fill-opacity:1" /></g><metadata
     id="metadata12"><rdf:RDF><cc:Work
         rdf:about=""><dc:title>Trip Logger app icon</dc:title></cc:Work></rdf:RDF></metadata></svg>
